{
  "version": "1.1.6",
  "modules": [
    {
      "id": 1,
      "plugin": "Core",
      "version": "1.1.6",
      "model": "AudioInterface",
      "params": [],
      "data": {
        "audio": {
          "driver": 6,
          "deviceName": "Headphones (Sesh Evo)",
          "offset": 0,
          "maxChannels": 8,
          "sampleRate": 44100,
          "blockSize": 256
        }
      },
      "pos": [
        96,
        0
      ]
    },
    {
      "id": 2,
      "plugin": "Fundamental",
      "version": "1.4.0",
      "model": "VCMixer",
      "params": [
        {
          "id": 0,
          "value": 1.0
        },
        {
          "id": 1,
          "value": 1.0
        },
        {
          "id": 2,
          "value": 1.0
        },
        {
          "id": 3,
          "value": 1.0
        },
        {
          "id": 4,
          "value": 1.0
        }
      ],
      "rightModuleId": 64,
      "pos": [
        61,
        0
      ]
    },
    {
      "id": 3,
      "plugin": "Fundamental",
      "version": "1.4.0",
      "model": "VCO",
      "params": [
        {
          "id": 0,
          "value": 1.0
        },
        {
          "id": 1,
          "value": 1.0
        },
        {
          "id": 2,
          "value": -3.00000095
        },
        {
          "id": 3,
          "value": 0.0
        },
        {
          "id": 4,
          "value": 0.0
        },
        {
          "id": 5,
          "value": 0.5
        },
        {
          "id": 6,
          "value": 0.0
        }
      ],
      "leftModuleId": 5,
      "rightModuleId": 4,
      "pos": [
        11,
        0
      ]
    },
    {
      "id": 4,
      "plugin": "Fundamental",
      "version": "1.4.0",
      "model": "VCF",
      "params": [
        {
          "id": 0,
          "value": 0.675000012
        },
        {
          "id": 1,
          "value": 0.5
        },
        {
          "id": 2,
          "value": 0.234000027
        },
        {
          "id": 3,
          "value": 1.0
        },
        {
          "id": 4,
          "value": 0.0
        }
      ],
      "leftModuleId": 3,
      "rightModuleId": 6,
      "pos": [
        21,
        0
      ]
    },
    {
      "id": 5,
      "plugin": "Core",
      "version": "1.1.6",
      "model": "MIDIToCVInterface",
      "params": [],
      "leftModuleId": 9,
      "rightModuleId": 3,
      "data": {
        "channels": 2,
        "polyMode": 0,
        "clockDivision": 24,
        "lastPitch": 8192,
        "lastMod": 0,
        "midi": {
          "driver": 4,
          "deviceName": "Loop A 1",
          "channel": -1
        }
      },
      "pos": [
        3,
        0
      ]
    },
    {
      "id": 6,
      "plugin": "Fundamental",
      "version": "1.4.0",
      "model": "ADSR",
      "params": [
        {
          "id": 0,
          "value": 0.250499845
        },
        {
          "id": 1,
          "value": 0.155000314
        },
        {
          "id": 2,
          "value": 0.357499778
        },
        {
          "id": 3,
          "value": 0.234499872
        }
      ],
      "leftModuleId": 4,
      "pos": [
        29,
        0
      ]
    },
    {
      "id": 9,
      "plugin": "unless_modules",
      "version": "1.1.1",
      "model": "room",
      "params": [],
      "rightModuleId": 5,
      "data": {
        "inclusive": false,
        "strip_mode": false
      },
      "pos": [
        0,
        0
      ]
    },
    {
      "id": 10,
      "plugin": "Core",
      "version": "1.1.6",
      "model": "MIDIToCVInterface",
      "params": [],
      "leftModuleId": 11,
      "rightModuleId": 12,
      "data": {
        "channels": 2,
        "polyMode": 0,
        "clockDivision": 24,
        "lastPitch": 8192,
        "lastMod": 0,
        "midi": {
          "driver": 4,
          "deviceName": "Loop C 3",
          "channel": -1
        }
      },
      "pos": [
        3,
        2
      ]
    },
    {
      "id": 11,
      "plugin": "unless_modules",
      "version": "1.1.1",
      "model": "room",
      "params": [],
      "rightModuleId": 10,
      "data": {
        "inclusive": false,
        "strip_mode": false
      },
      "pos": [
        0,
        2
      ]
    },
    {
      "id": 12,
      "plugin": "Fundamental",
      "version": "1.4.0",
      "model": "VCO",
      "params": [
        {
          "id": 0,
          "value": 1.0
        },
        {
          "id": 1,
          "value": 1.0
        },
        {
          "id": 2,
          "value": -14.9999914
        },
        {
          "id": 3,
          "value": 0.0
        },
        {
          "id": 4,
          "value": 0.0
        },
        {
          "id": 5,
          "value": 0.5
        },
        {
          "id": 6,
          "value": 0.0
        }
      ],
      "leftModuleId": 10,
      "pos": [
        11,
        2
      ]
    },
    {
      "id": 13,
      "plugin": "Fundamental",
      "version": "1.4.0",
      "model": "VCF",
      "params": [
        {
          "id": 0,
          "value": 0.574999988
        },
        {
          "id": 1,
          "value": 0.5
        },
        {
          "id": 2,
          "value": 0.803500056
        },
        {
          "id": 3,
          "value": -0.0500000007
        },
        {
          "id": 4,
          "value": 0.497500092
        }
      ],
      "leftModuleId": 16,
      "pos": [
        31,
        2
      ]
    },
    {
      "id": 16,
      "plugin": "Fundamental",
      "version": "1.4.0",
      "model": "ADSR",
      "params": [
        {
          "id": 0,
          "value": 0.098999992
        },
        {
          "id": 1,
          "value": 0.357500464
        },
        {
          "id": 2,
          "value": 0.628999889
        },
        {
          "id": 3,
          "value": 0.392000049
        }
      ],
      "rightModuleId": 13,
      "pos": [
        23,
        2
      ]
    },
    {
      "id": 17,
      "plugin": "Fundamental",
      "version": "1.4.0",
      "model": "VCMixer",
      "params": [
        {
          "id": 0,
          "value": 1.227
        },
        {
          "id": 1,
          "value": 1.0
        },
        {
          "id": 2,
          "value": 1.0
        },
        {
          "id": 3,
          "value": 1.0
        },
        {
          "id": 4,
          "value": 1.0
        }
      ],
      "rightModuleId": 66,
      "pos": [
        61,
        2
      ]
    },
    {
      "id": 25,
      "plugin": "unless_modules",
      "version": "1.1.1",
      "model": "room",
      "params": [],
      "rightModuleId": 26,
      "data": {
        "inclusive": false,
        "strip_mode": false
      },
      "pos": [
        0,
        1
      ]
    },
    {
      "id": 26,
      "plugin": "Core",
      "version": "1.1.6",
      "model": "MIDIToCVInterface",
      "params": [],
      "leftModuleId": 25,
      "rightModuleId": 27,
      "data": {
        "channels": 2,
        "polyMode": 0,
        "clockDivision": 24,
        "lastPitch": 8192,
        "lastMod": 0,
        "midi": {
          "driver": 4,
          "deviceName": "Loop B 2",
          "channel": -1
        }
      },
      "pos": [
        3,
        1
      ]
    },
    {
      "id": 27,
      "plugin": "Fundamental",
      "version": "1.4.0",
      "model": "VCO",
      "params": [
        {
          "id": 0,
          "value": 1.0
        },
        {
          "id": 1,
          "value": 1.0
        },
        {
          "id": 2,
          "value": -3.00000095
        },
        {
          "id": 3,
          "value": 0.0
        },
        {
          "id": 4,
          "value": 0.0
        },
        {
          "id": 5,
          "value": 0.5
        },
        {
          "id": 6,
          "value": 0.0
        }
      ],
      "leftModuleId": 26,
      "rightModuleId": 29,
      "pos": [
        11,
        1
      ]
    },
    {
      "id": 29,
      "plugin": "Fundamental",
      "version": "1.4.0",
      "model": "ADSR",
      "params": [
        {
          "id": 0,
          "value": 0.098999992
        },
        {
          "id": 1,
          "value": 0.285500199
        },
        {
          "id": 2,
          "value": 0.303499579
        },
        {
          "id": 3,
          "value": 0.545000196
        }
      ],
      "leftModuleId": 27,
      "rightModuleId": 35,
      "pos": [
        21,
        1
      ]
    },
    {
      "id": 31,
      "plugin": "Fundamental",
      "version": "1.4.0",
      "model": "VCF",
      "params": [
        {
          "id": 0,
          "value": 0.37499997
        },
        {
          "id": 1,
          "value": 0.5
        },
        {
          "id": 2,
          "value": 0.5625
        },
        {
          "id": 3,
          "value": 0.800000012
        },
        {
          "id": 4,
          "value": 0.437499881
        }
      ],
      "leftModuleId": 35,
      "pos": [
        37,
        1
      ]
    },
    {
      "id": 35,
      "plugin": "Fundamental",
      "version": "1.4.0",
      "model": "ADSR",
      "params": [
        {
          "id": 0,
          "value": 0.11400003
        },
        {
          "id": 1,
          "value": 0.678500295
        },
        {
          "id": 2,
          "value": 0.387499869
        },
        {
          "id": 3,
          "value": 0.717500329
        }
      ],
      "leftModuleId": 29,
      "rightModuleId": 31,
      "pos": [
        29,
        1
      ]
    },
    {
      "id": 38,
      "plugin": "Core",
      "version": "1.1.6",
      "model": "MIDIToCVInterface",
      "params": [],
      "leftModuleId": 39,
      "rightModuleId": 40,
      "data": {
        "channels": 1,
        "polyMode": 0,
        "clockDivision": 24,
        "lastPitch": 8192,
        "lastMod": 0,
        "midi": {
          "driver": 4,
          "deviceName": "Loop D 4",
          "channel": -1
        }
      },
      "pos": [
        3,
        3
      ]
    },
    {
      "id": 39,
      "plugin": "unless_modules",
      "version": "1.1.1",
      "model": "room",
      "params": [],
      "rightModuleId": 38,
      "data": {
        "inclusive": false,
        "strip_mode": false
      },
      "pos": [
        0,
        3
      ]
    },
    {
      "id": 40,
      "plugin": "Fundamental",
      "version": "1.4.0",
      "model": "VCO",
      "params": [
        {
          "id": 0,
          "value": 1.0
        },
        {
          "id": 1,
          "value": 1.0
        },
        {
          "id": 2,
          "value": -3.00000095
        },
        {
          "id": 3,
          "value": 0.0
        },
        {
          "id": 4,
          "value": 0.0
        },
        {
          "id": 5,
          "value": 0.5
        },
        {
          "id": 6,
          "value": 0.0
        }
      ],
      "leftModuleId": 38,
      "rightModuleId": 55,
      "pos": [
        11,
        3
      ]
    },
    {
      "id": 28,
      "plugin": "Fundamental",
      "version": "1.4.0",
      "model": "VCMixer",
      "params": [
        {
          "id": 0,
          "value": 0.461999714
        },
        {
          "id": 1,
          "value": 1.27420652
        },
        {
          "id": 2,
          "value": 0.82605207
        },
        {
          "id": 3,
          "value": 0.535987496
        },
        {
          "id": 4,
          "value": 0.372089565
        }
      ],
      "rightModuleId": 65,
      "pos": [
        61,
        1
      ]
    },
    {
      "id": 44,
      "plugin": "Fundamental",
      "version": "1.4.0",
      "model": "VCMixer",
      "params": [
        {
          "id": 0,
          "value": 1.0
        },
        {
          "id": 1,
          "value": 0.889691472
        },
        {
          "id": 2,
          "value": 0.906661868
        },
        {
          "id": 3,
          "value": 0.736956418
        },
        {
          "id": 4,
          "value": 0.792110622
        }
      ],
      "pos": [
        96,
        1
      ]
    },
    {
      "id": 55,
      "plugin": "Fundamental",
      "version": "1.4.0",
      "model": "ADSR",
      "params": [
        {
          "id": 0,
          "value": 0.0810000002
        },
        {
          "id": 1,
          "value": 0.544022799
        },
        {
          "id": 2,
          "value": 0.705499768
        },
        {
          "id": 3,
          "value": 0.57525748
        }
      ],
      "leftModuleId": 40,
      "pos": [
        21,
        3
      ]
    },
    {
      "id": 56,
      "plugin": "Fundamental",
      "version": "1.4.0",
      "model": "VCMixer",
      "params": [
        {
          "id": 0,
          "value": 1.49899995
        },
        {
          "id": 1,
          "value": 0.981464744
        },
        {
          "id": 2,
          "value": 1.0
        },
        {
          "id": 3,
          "value": 0.546037614
        },
        {
          "id": 4,
          "value": 0.843022346
        }
      ],
      "leftModuleId": 63,
      "pos": [
        49,
        3
      ]
    },
    {
      "id": 42,
      "plugin": "Fundamental",
      "version": "1.4.0",
      "model": "VCMixer",
      "params": [
        {
          "id": 0,
          "value": 1.9460001
        },
        {
          "id": 1,
          "value": 0.927874506
        },
        {
          "id": 2,
          "value": 1.41421354
        },
        {
          "id": 3,
          "value": 1.0
        },
        {
          "id": 4,
          "value": 1.0
        }
      ],
      "rightModuleId": 67,
      "pos": [
        61,
        3
      ]
    },
    {
      "id": 60,
      "plugin": "Fundamental",
      "version": "1.4.0",
      "model": "LFO",
      "params": [
        {
          "id": 0,
          "value": 1.0
        },
        {
          "id": 1,
          "value": 1.0
        },
        {
          "id": 2,
          "value": 2.58496261
        },
        {
          "id": 3,
          "value": 0.150000006
        },
        {
          "id": 4,
          "value": 0.0500000007
        },
        {
          "id": 5,
          "value": 0.5
        },
        {
          "id": 6,
          "value": 0.200000003
        }
      ],
      "rightModuleId": 63,
      "pos": [
        31,
        3
      ]
    },
    {
      "id": 63,
      "plugin": "Fundamental",
      "version": "1.4.0",
      "model": "ADSR",
      "params": [
        {
          "id": 0,
          "value": 0.75
        },
        {
          "id": 1,
          "value": 0.564500451
        },
        {
          "id": 2,
          "value": 0.5
        },
        {
          "id": 3,
          "value": 0.75
        }
      ],
      "leftModuleId": 60,
      "rightModuleId": 56,
      "pos": [
        41,
        3
      ]
    },
    {
      "id": 64,
      "plugin": "Fundamental",
      "version": "1.4.0",
      "model": "Scope",
      "params": [
        {
          "id": 0,
          "value": 0.0
        },
        {
          "id": 1,
          "value": 0.0
        },
        {
          "id": 2,
          "value": 0.0
        },
        {
          "id": 3,
          "value": 0.0
        },
        {
          "id": 4,
          "value": 14.0
        },
        {
          "id": 5,
          "value": 0.0
        },
        {
          "id": 6,
          "value": 0.0
        },
        {
          "id": 7,
          "value": 0.0
        }
      ],
      "leftModuleId": 2,
      "data": {
        "lissajous": 0,
        "external": 0
      },
      "pos": [
        71,
        0
      ]
    },
    {
      "id": 65,
      "plugin": "Fundamental",
      "version": "1.4.0",
      "model": "Scope",
      "params": [
        {
          "id": 0,
          "value": 0.0
        },
        {
          "id": 1,
          "value": 0.0
        },
        {
          "id": 2,
          "value": 0.0
        },
        {
          "id": 3,
          "value": 0.0
        },
        {
          "id": 4,
          "value": 14.0
        },
        {
          "id": 5,
          "value": 0.0
        },
        {
          "id": 6,
          "value": 0.0
        },
        {
          "id": 7,
          "value": 0.0
        }
      ],
      "leftModuleId": 28,
      "data": {
        "lissajous": 0,
        "external": 0
      },
      "pos": [
        71,
        1
      ]
    },
    {
      "id": 66,
      "plugin": "Fundamental",
      "version": "1.4.0",
      "model": "Scope",
      "params": [
        {
          "id": 0,
          "value": 0.0
        },
        {
          "id": 1,
          "value": 0.0
        },
        {
          "id": 2,
          "value": 0.0
        },
        {
          "id": 3,
          "value": 0.0
        },
        {
          "id": 4,
          "value": 14.0
        },
        {
          "id": 5,
          "value": 0.0
        },
        {
          "id": 6,
          "value": 0.0
        },
        {
          "id": 7,
          "value": 0.0
        }
      ],
      "leftModuleId": 17,
      "data": {
        "lissajous": 0,
        "external": 0
      },
      "pos": [
        71,
        2
      ]
    },
    {
      "id": 67,
      "plugin": "Fundamental",
      "version": "1.4.0",
      "model": "Scope",
      "params": [
        {
          "id": 0,
          "value": 0.0
        },
        {
          "id": 1,
          "value": 0.0
        },
        {
          "id": 2,
          "value": 0.0
        },
        {
          "id": 3,
          "value": 0.0
        },
        {
          "id": 4,
          "value": 14.0
        },
        {
          "id": 5,
          "value": 0.0
        },
        {
          "id": 6,
          "value": 0.0
        },
        {
          "id": 7,
          "value": 0.0
        }
      ],
      "leftModuleId": 42,
      "data": {
        "lissajous": 0,
        "external": 0
      },
      "pos": [
        71,
        3
      ]
    }
  ],
  "cables": [
    {
      "id": 551,
      "outputModuleId": 5,
      "outputId": 0,
      "inputModuleId": 3,
      "inputId": 0,
      "color": "#c91847"
    },
    {
      "id": 556,
      "outputModuleId": 5,
      "outputId": 1,
      "inputModuleId": 6,
      "inputId": 4,
      "color": "#c9b70e"
    },
    {
      "id": 557,
      "outputModuleId": 6,
      "outputId": 0,
      "inputModuleId": 2,
      "inputId": 5,
      "color": "#0c8e15"
    },
    {
      "id": 560,
      "outputModuleId": 5,
      "outputId": 6,
      "inputModuleId": 6,
      "inputId": 5,
      "color": "#c91847"
    },
    {
      "id": 552,
      "outputModuleId": 3,
      "outputId": 1,
      "inputModuleId": 2,
      "inputId": 1,
      "color": "#0c8e15"
    },
    {
      "id": 562,
      "outputModuleId": 6,
      "outputId": 0,
      "inputModuleId": 2,
      "inputId": 6,
      "color": "#0986ad"
    },
    {
      "id": 561,
      "outputModuleId": 3,
      "outputId": 2,
      "inputModuleId": 4,
      "inputId": 3,
      "color": "#c91847"
    },
    {
      "id": 564,
      "outputModuleId": 4,
      "outputId": 0,
      "inputModuleId": 2,
      "inputId": 2,
      "color": "#0c8e15"
    },
    {
      "id": 570,
      "outputModuleId": 16,
      "outputId": 0,
      "inputModuleId": 17,
      "inputId": 5,
      "color": "#0986ad"
    },
    {
      "id": 575,
      "outputModuleId": 10,
      "outputId": 1,
      "inputModuleId": 16,
      "inputId": 4,
      "color": "#c9b70e"
    },
    {
      "id": 576,
      "outputModuleId": 10,
      "outputId": 6,
      "inputModuleId": 16,
      "inputId": 5,
      "color": "#0c8e15"
    },
    {
      "id": 574,
      "outputModuleId": 10,
      "outputId": 0,
      "inputModuleId": 12,
      "inputId": 0,
      "color": "#0986ad"
    },
    {
      "id": 592,
      "outputModuleId": 10,
      "outputId": 2,
      "inputModuleId": 17,
      "inputId": 0,
      "color": "#0c8e15"
    },
    {
      "id": 593,
      "outputModuleId": 5,
      "outputId": 2,
      "inputModuleId": 2,
      "inputId": 0,
      "color": "#c91847"
    },
    {
      "id": 597,
      "outputModuleId": 26,
      "outputId": 0,
      "inputModuleId": 27,
      "inputId": 0,
      "color": "#c91847"
    },
    {
      "id": 598,
      "outputModuleId": 26,
      "outputId": 1,
      "inputModuleId": 29,
      "inputId": 4,
      "color": "#0986ad"
    },
    {
      "id": 599,
      "outputModuleId": 26,
      "outputId": 6,
      "inputModuleId": 29,
      "inputId": 5,
      "color": "#c9b70e"
    },
    {
      "id": 620,
      "outputModuleId": 26,
      "outputId": 6,
      "inputModuleId": 27,
      "inputId": 2,
      "color": "#0986ad"
    },
    {
      "id": 624,
      "outputModuleId": 26,
      "outputId": 1,
      "inputModuleId": 35,
      "inputId": 4,
      "color": "#c9b70e"
    },
    {
      "id": 625,
      "outputModuleId": 26,
      "outputId": 6,
      "inputModuleId": 35,
      "inputId": 5,
      "color": "#0c8e15"
    },
    {
      "id": 626,
      "outputModuleId": 35,
      "outputId": 0,
      "inputModuleId": 31,
      "inputId": 0,
      "color": "#c91847"
    },
    {
      "id": 629,
      "outputModuleId": 16,
      "outputId": 0,
      "inputModuleId": 17,
      "inputId": 6,
      "color": "#0c8e15"
    },
    {
      "id": 646,
      "outputModuleId": 12,
      "outputId": 3,
      "inputModuleId": 13,
      "inputId": 3,
      "color": "#0986ad"
    },
    {
      "id": 587,
      "outputModuleId": 13,
      "outputId": 0,
      "inputModuleId": 17,
      "inputId": 1,
      "color": "#c9b70e"
    },
    {
      "id": 647,
      "outputModuleId": 10,
      "outputId": 0,
      "inputModuleId": 13,
      "inputId": 0,
      "color": "#c9b70e"
    },
    {
      "id": 650,
      "outputModuleId": 38,
      "outputId": 0,
      "inputModuleId": 40,
      "inputId": 0,
      "color": "#0986ad"
    },
    {
      "id": 616,
      "outputModuleId": 29,
      "outputId": 0,
      "inputModuleId": 28,
      "inputId": 5,
      "color": "#0986ad"
    },
    {
      "id": 623,
      "outputModuleId": 31,
      "outputId": 0,
      "inputModuleId": 28,
      "inputId": 1,
      "color": "#0986ad"
    },
    {
      "id": 627,
      "outputModuleId": 26,
      "outputId": 2,
      "inputModuleId": 28,
      "inputId": 0,
      "color": "#0986ad"
    },
    {
      "id": 654,
      "outputModuleId": 2,
      "outputId": 0,
      "inputModuleId": 44,
      "inputId": 1,
      "color": "#0986ad"
    },
    {
      "id": 655,
      "outputModuleId": 28,
      "outputId": 0,
      "inputModuleId": 44,
      "inputId": 2,
      "color": "#c9b70e"
    },
    {
      "id": 656,
      "outputModuleId": 17,
      "outputId": 0,
      "inputModuleId": 44,
      "inputId": 3,
      "color": "#0c8e15"
    },
    {
      "id": 658,
      "outputModuleId": 44,
      "outputId": 0,
      "inputModuleId": 1,
      "inputId": 0,
      "color": "#0986ad"
    },
    {
      "id": 659,
      "outputModuleId": 44,
      "outputId": 0,
      "inputModuleId": 1,
      "inputId": 1,
      "color": "#c9b70e"
    },
    {
      "id": 680,
      "outputModuleId": 38,
      "outputId": 1,
      "inputModuleId": 55,
      "inputId": 4,
      "color": "#c9b70e"
    },
    {
      "id": 687,
      "outputModuleId": 38,
      "outputId": 6,
      "inputModuleId": 55,
      "inputId": 5,
      "color": "#c9b70e"
    },
    {
      "id": 686,
      "outputModuleId": 40,
      "outputId": 1,
      "inputModuleId": 56,
      "inputId": 1,
      "color": "#0986ad"
    },
    {
      "id": 657,
      "outputModuleId": 42,
      "outputId": 0,
      "inputModuleId": 44,
      "inputId": 4,
      "color": "#c91847"
    },
    {
      "id": 705,
      "outputModuleId": 55,
      "outputId": 0,
      "inputModuleId": 56,
      "inputId": 5,
      "color": "#0c8e15"
    },
    {
      "id": 716,
      "outputModuleId": 38,
      "outputId": 1,
      "inputModuleId": 63,
      "inputId": 4,
      "color": "#0c8e15"
    },
    {
      "id": 717,
      "outputModuleId": 38,
      "outputId": 6,
      "inputModuleId": 63,
      "inputId": 5,
      "color": "#c91847"
    },
    {
      "id": 723,
      "outputModuleId": 55,
      "outputId": 0,
      "inputModuleId": 60,
      "inputId": 3,
      "color": "#c9b70e"
    },
    {
      "id": 724,
      "outputModuleId": 56,
      "outputId": 1,
      "inputModuleId": 42,
      "inputId": 1,
      "color": "#c91847"
    },
    {
      "id": 725,
      "outputModuleId": 40,
      "outputId": 1,
      "inputModuleId": 56,
      "inputId": 3,
      "color": "#0986ad"
    },
    {
      "id": 728,
      "outputModuleId": 56,
      "outputId": 3,
      "inputModuleId": 56,
      "inputId": 4,
      "color": "#0986ad"
    },
    {
      "id": 729,
      "outputModuleId": 63,
      "outputId": 0,
      "inputModuleId": 56,
      "inputId": 8,
      "color": "#c9b70e"
    },
    {
      "id": 726,
      "outputModuleId": 60,
      "outputId": 0,
      "inputModuleId": 56,
      "inputId": 7,
      "color": "#c9b70e"
    },
    {
      "id": 731,
      "outputModuleId": 38,
      "outputId": 6,
      "inputModuleId": 60,
      "inputId": 2,
      "color": "#c91847"
    },
    {
      "id": 732,
      "outputModuleId": 38,
      "outputId": 2,
      "inputModuleId": 42,
      "inputId": 0,
      "color": "#0986ad"
    },
    {
      "id": 733,
      "outputModuleId": 27,
      "outputId": 3,
      "inputModuleId": 31,
      "inputId": 3,
      "color": "#0986ad"
    },
    {
      "id": 730,
      "outputModuleId": 56,
      "outputId": 4,
      "inputModuleId": 42,
      "inputId": 2,
      "color": "#0c8e15"
    },
    {
      "id": 734,
      "outputModuleId": 42,
      "outputId": 0,
      "inputModuleId": 67,
      "inputId": 0,
      "color": "#0986ad"
    },
    {
      "id": 735,
      "outputModuleId": 17,
      "outputId": 0,
      "inputModuleId": 66,
      "inputId": 0,
      "color": "#c9b70e"
    },
    {
      "id": 736,
      "outputModuleId": 28,
      "outputId": 0,
      "inputModuleId": 65,
      "inputId": 0,
      "color": "#0c8e15"
    },
    {
      "id": 737,
      "outputModuleId": 2,
      "outputId": 0,
      "inputModuleId": 64,
      "inputId": 0,
      "color": "#c91847"
    }
  ]
}